<?xml version="1.0" encoding="utf-8"?>
<!-- Generator: Adobe Illustrator 22.1.0, SVG Export Plug-In . SVG Version: 6.00 Build 0)  -->
<svg version="1.1" id="Layer_1" xmlns="http://www.w3.org/2000/svg" xmlns:xlink="http://www.w3.org/1999/xlink" x="0px" y="0px"
	 viewBox="0 0 710 710" style="enable-background:new 0 0 710 710;" xml:space="preserve">
<style type="text/css">
	.st0{opacity:0.15;fill:none;stroke:url(#SVGID_1_);enable-background:new    ;}
	.st1{fill:none;stroke:#020202;}
	.st2{opacity:0.2;fill:none;stroke:url(#SVGID_2_);enable-background:new    ;}
	.st3{opacity:0.5;fill:none;stroke:url(#SVGID_3_);enable-background:new    ;}
	.st4{fill:none;stroke:#020202;stroke-width:1.5;}
	.st5{opacity:3.000000e-02;fill:#FFFFFF;enable-background:new    ;}
	.st6{opacity:0.1;fill:#FFFFFF;enable-background:new    ;}
	.st7{fill:#F08821;}
</style>
<g transform="translate(1 1)">
	
		<linearGradient id="SVGID_1_" gradientUnits="userSpaceOnUse" x1="48.4308" y1="750.9435" x2="48.4308" y2="749.9435" gradientTransform="matrix(708 0 0 -708 -33935 531668)">
		<stop  offset="0" style="stop-color:#5366FF"/>
		<stop  offset="0.5147" style="stop-color:#2123E3"/>
		<stop  offset="1" style="stop-color:#5366FF"/>
	</linearGradient>
	<circle class="st0" cx="354" cy="354" r="354"/>
	<ellipse class="st1" cx="354" cy="354.5" rx="135" ry="136.5"/>
	
		<linearGradient id="SVGID_2_" gradientUnits="userSpaceOnUse" x1="48.3998" y1="750.9182" x2="48.3998" y2="749.9182" gradientTransform="matrix(489 0 0 -489 -23313 367309)">
		<stop  offset="0" style="stop-color:#5366FF"/>
		<stop  offset="0.5147" style="stop-color:#2123E3"/>
		<stop  offset="1" style="stop-color:#5366FF"/>
	</linearGradient>
	<circle class="st2" cx="354.5" cy="354.5" r="244.5"/>
	
		<linearGradient id="SVGID_3_" gradientUnits="userSpaceOnUse" x1="48.3635" y1="750.8885" x2="48.3635" y2="749.8885" gradientTransform="matrix(359 0 0 -359 -17008 269744)">
		<stop  offset="0" style="stop-color:#5366FF"/>
		<stop  offset="0.5147" style="stop-color:#2123E3"/>
		<stop  offset="1" style="stop-color:#5366FF"/>
	</linearGradient>
	<circle class="st3" cx="354.5" cy="354.5" r="179.5"/>
	<g transform="translate(26 184)">
		<g transform="translate(0 243)">
			<path class="st4" d="M201.8,53.3l-40.1,40.1c-3.8,3.8-8.8,5.9-14.1,5.9H22.3c-3.3,0-6.4,1.6-8.3,4.4L0.2,123.8"/>
			<path class="st4" d="M201.5,53.6l29.7-29.7"/>
			<g transform="rotate(45 115.55 279.528)">
				<rect x="5" y="5" transform="matrix(-0.7071 0.7071 -0.7071 -0.7071 39.8345 16.4999)" class="st5" width="23" height="23"/>
				<rect x="11" y="11" transform="matrix(-0.7071 0.7071 -0.7071 -0.7071 39.8345 16.4999)" class="st6" width="11" height="11"/>
				<rect x="14" y="14" transform="matrix(-0.7071 0.7071 -0.7071 -0.7071 39.8345 16.4999)" class="st7" width="5" height="5"/>
			</g>
		</g>
		<g transform="translate(0 154)">
			<path class="st4" d="M193.4,17l-63.7,0.2c0,0,0,0-0.1,0H21.1c-3.4,0-6.6,1.7-8.4,4.6L0,41.7"/>
			<g transform="translate(177)">
				<rect x="5" y="5" transform="matrix(0.7071 -0.7071 0.7071 0.7071 -6.8345 16.5)" class="st5" width="23" height="23"/>
				<rect x="11" y="11" transform="matrix(0.7071 -0.7071 0.7071 0.7071 -6.8345 16.5)" class="st6" width="11" height="11"/>
				<rect x="14" y="14" transform="matrix(0.7071 -0.7071 0.7071 0.7071 -6.8345 16.5)" class="st7" width="5" height="5"/>
			</g>
		</g>
		<g transform="translate(1)">
			<path class="st4" d="M231.2,74.2L203,46"/>
			<path class="st4" d="M203.2,46.2L163.4,6.3c-3.8-3.8-8.8-5.9-14.2-5.9H21.2c-3.4,0-6.6,1.7-8.4,4.6L0.1,24.9"/>
			<g transform="rotate(45 55.195 304.528)">
				<rect x="5" y="5" transform="matrix(-0.7071 0.7071 -0.7071 -0.7071 39.8345 16.4999)" class="st5" width="23" height="23"/>
				<rect x="11" y="11" transform="matrix(-0.7071 0.7071 -0.7071 -0.7071 39.8345 16.4999)" class="st6" width="11" height="11"/>
				<rect x="14" y="14" transform="matrix(-0.7071 0.7071 -0.7071 -0.7071 39.8345 16.4999)" class="st7" width="5" height="5"/>
			</g>
		</g>
		<g transform="matrix(-1 0 0 1 656 243)">
			<path class="st4" d="M201.8,53.3l-40.1,40.1c-3.8,3.8-8.8,5.9-14.1,5.9H22.3c-3.3,0-6.4,1.6-8.3,4.4L0.2,123.8"/>
			<path class="st4" d="M201.5,53.6l28.8-28.8"/>
			<g transform="rotate(-45 132.45 -239.528)">
				<rect x="5" y="28" transform="matrix(0.7071 -0.7071 0.7071 0.7071 -6.8345 16.5001)" class="st5" width="23" height="-23"/>
				<rect x="11" y="22" transform="matrix(0.7071 -0.7071 0.7071 0.7071 -6.8345 16.5001)" class="st6" width="11" height="-11"/>
				<rect x="14" y="19" transform="matrix(0.7071 -0.7071 0.7071 0.7071 -6.8345 16.5001)" class="st7" width="5" height="-5"/>
			</g>
		</g>
		<g transform="matrix(-1 0 0 1 656 154)">
			<path class="st4" d="M192.5,17l-62.7,0.2c0,0,0,0-0.1,0H21.1c-3.4,0-6.6,1.7-8.4,4.6L0,41.7"/>
			<g transform="translate(177)">
				<rect x="5" y="28" transform="matrix(0.7071 0.7071 -0.7071 0.7071 16.4999 -6.8345)" class="st5" width="23" height="-23"/>
				<rect x="11" y="22" transform="matrix(0.7071 0.7071 -0.7071 0.7071 16.4999 -6.8345)" class="st6" width="11" height="-11"/>
				<rect x="14" y="19" transform="matrix(0.7071 0.7071 -0.7071 0.7071 16.4999 -6.8345)" class="st7" width="5" height="-5"/>
			</g>
		</g>
		<g transform="matrix(-1 0 0 1 655 0)">
			<path class="st4" d="M231.4,74.4L203,46"/>
			<path class="st4" d="M203.2,46.2L163.4,6.3c-3.8-3.8-8.8-5.9-14.2-5.9H21.2c-3.4,0-6.6,1.7-8.4,4.6L0.1,24.9"/>
			<g transform="rotate(45 55.195 304.528)">
				<rect x="5" y="28" transform="matrix(0.7071 -0.7071 0.7071 0.7071 -6.8345 16.5001)" class="st5" width="23" height="-23"/>
				<rect x="11" y="22" transform="matrix(0.7071 -0.7071 0.7071 0.7071 -6.8345 16.5001)" class="st6" width="11" height="-11"/>
				<rect x="14" y="19" transform="matrix(0.7071 -0.7071 0.7071 0.7071 -6.8345 16.5001)" class="st7" width="5" height="-5"/>
			</g>
		</g>
	</g>
</g>
</svg>
