<?xml version="1.0" encoding="utf-8"?>
<!-- Generator: Adobe Illustrator 22.1.0, SVG Export Plug-In . SVG Version: 6.00 Build 0)  -->
<svg version="1.1" id="Layer_1" xmlns="http://www.w3.org/2000/svg" xmlns:xlink="http://www.w3.org/1999/xlink" x="0px" y="0px"
	 viewBox="0 0 1920 620" style="enable-background:new 0 0 1920 620;" xml:space="preserve">
<style type="text/css">
	.st0{fill:#F8F8FF;stroke:url(#SVGID_1_);stroke-width:6;}
</style>
<linearGradient id="SVGID_1_" gradientUnits="userSpaceOnUse" x1="655.1221" y1="706.3329" x2="654.3251" y2="705.5177" gradientTransform="matrix(2220.1689 0 0 -681.0625 -1451462 481429.1875)">
	<stop  offset="0" style="stop-color:#7679EC;stop-opacity:0"/>
	<stop  offset="1" style="stop-color:#5659E1"/>
</linearGradient>
<path class="st0" d="M-22.4,519.4c70.2-104.1,156.5-97.9,256.6,17.8c39.2,43.9,72.8,63.4,104.1,62.7c26.8-0.6,52-15.7,82.2-46.2
	c9.1-9.3,18.5-19.7,30.9-34c2.5-2.9,25.3-29.7,32.3-37.7c21.3-24.5,38.6-42.5,56.8-58.4c22.4-19.5,44.7-34.4,68.4-44.7
	c55.7-24.3,117.6-23,190.5,8.7c75.4,32.7,130.7,37.7,174.5,19.7c18.7-7.7,35.3-19.5,51.8-35.9c12.9-12.9,23.8-26.3,42.3-50.9
	c1.2-1.5,6.4-8.5,7.8-10.4c18.6-24.7,30-38.8,43.7-52.6c17.6-17.9,35.8-31.3,56.2-40.9c48.1-22.5,108.4-22.6,188.5,3.6
	c77.7,25.4,139.1,24.1,190.9,0.2c22-10.2,42.2-24.3,62.2-42.9c16.1-14.9,30.8-31.4,50.5-55.5c3-3.6,22-27.3,27.5-34
	c17.2-20.9,30.5-35.4,44.3-47.5c16.7-14.7,33.4-25.1,51.2-31.1c40.7-13.9,87.7-5.3,146.7,29.5c185.7,109.7,206.8,317.3,64,621.7
	l-0.8,1.7l-2126.1,21.8L-22.4,519.4L-22.4,519.4z"/>
</svg>
