<svg id="Layer_1" data-name="Layer 1" xmlns="http://www.w3.org/2000/svg" viewBox="0 0 504 293.69"><defs><style>.cls-1{fill:#fff;}.cls-2{fill:gray;}.cls-3{fill:#b3b3b3;}</style></defs><title>STC_3D_White_logo on left</title><path id="STC" class="cls-1" d="M299.76,158.61c-20.32,0-25.89,24.87.65,28,13.29,1.57,28.12,1.18,40.92,5,25.85,7.64,19.05,41.51-9.43,41.51H274.43v-7.71H331.9c20.31,0,25.89-24.87-.65-28-13.29-1.57-28.12-1.18-40.92-5-25.86-7.64-19.06-41.51,9.43-41.51h47.08v7.71Zm117.51.22V233.1h-8.16V158.83H370.24V150.9h85.9v7.93Zm93.75,0c-47.58,0-47.58,66.34,0,66.34h41v7.93H511.14c-59.63,0-59.63-82.2,0-82.2H552v7.93Z" transform="translate(-48 -45.16)"/><g id="_3D_logo" data-name="3D logo"><polygon id="_348001840" data-name=" 348001840" class="cls-2" points="81.08 0 0 120.12 18.04 146.84 0 173.57 81.08 293.69 162.16 173.57 144.12 146.84 144.12 146.84 162.16 120.12 81.08 0"/><path id="_348001576" data-name=" 348001576" class="cls-3" d="M129.08,338.84V192h63l18,26.73L129.08,338.84Zm0-293.68V192H66L48,165.28,129.08,45.16Zm0,53.44L66,192l63,93.4,63-93.4-63-93.4Z" transform="translate(-48 -45.16)"/><polygon id="_348002104" data-name=" 348002104" class="cls-1" points="144.12 146.84 81.08 240.24 81.08 146.84 18.04 146.84 81.08 53.45 81.08 146.84 144.12 146.84"/></g></svg>